<svg width="100" height="100" viewBox="0 0 100 100" xmlns="http://www.w3.org/2000/svg">
  <!-- Apple body -->
  <path d="M35 45 Q35 25 50 30 Q65 25 65 45 Q70 60 65 75 Q55 85 50 85 Q45 85 35 75 Q30 60 35 45" fill="#dc143c"/>
  
  <!-- Apple highlight -->
  <path d="M42 35 Q45 25 48 30 Q52 32 50 40 Q47 45 44 40 Q41 38 42 35" fill="#ff6b6b" opacity="0.8"/>
  
  <!-- Apple stem -->
  <rect x="48" y="25" width="4" height="8" fill="#8b4513" rx="1"/>
  
  <!-- Apple leaf -->
  <ellipse cx="55" cy="25" rx="4" ry="8" fill="#228b22" transform="rotate(25 55 25)"/>
  
  <!-- Apple indentation at top -->
  <path d="M45 32 Q50 28 55 32 Q52 35 50 33 Q48 35 45 32" fill="#b91c3c"/>
</svg>