<svg width="100" height="100" viewBox="0 0 100 100" xmlns="http://www.w3.org/2000/svg">
  <!-- Banana body -->
  <path d="M20 70 Q15 50 25 35 Q35 25 50 25 Q65 30 70 45 Q72 60 65 70 Q60 75 50 75 Q35 72 20 70" fill="#ffff00"/>
  
  <!-- Banana peel lines -->
  <path d="M25 65 Q30 50 40 40 Q50 35 60 40" stroke="#f0e68c" stroke-width="2" fill="none"/>
  <path d="M22 67 Q27 52 37 42 Q47 37 57 42" stroke="#f0e68c" stroke-width="2" fill="none"/>
  <path d="M27 63 Q32 48 42 38 Q52 33 62 38" stroke="#f0e68c" stroke-width="2" fill="none"/>
  
  <!-- Banana tip -->
  <circle cx="68" cy="68" r="3" fill="#daa520"/>
  
  <!-- Banana stem end -->
  <ellipse cx="25" cy="68" rx="3" ry="5" fill="#8b7355"/>
</svg>