<svg width="100" height="100" viewBox="0 0 100 100" xmlns="http://www.w3.org/2000/svg">
  <!-- Left boxing glove -->
  <ellipse cx="30" cy="45" rx="12" ry="18" fill="#cc0000"/>
  <ellipse cx="30" cy="40" rx="8" ry="12" fill="#ff3333"/>
  
  <!-- Left glove cuff -->
  <rect x="20" y="60" width="20" height="8" fill="#990000" rx="2"/>
  <rect x="22" y="62" width="16" height="4" fill="#ff6666" rx="1"/>
  
  <!-- Right boxing glove -->
  <ellipse cx="70" cy="45" rx="12" ry="18" fill="#cc0000"/>
  <ellipse cx="70" cy="40" rx="8" ry="12" fill="#ff3333"/>
  
  <!-- Right glove cuff -->
  <rect x="60" y="60" width="20" height="8" fill="#990000" rx="2"/>
  <rect x="62" y="62" width="16" height="4" fill="#ff6666" rx="1"/>
  
  <!-- Laces on left glove -->
  <line x1="26" y1="35" x2="34" y2="35" stroke="white" stroke-width="1"/>
  <line x1="26" y1="40" x2="34" y2="40" stroke="white" stroke-width="1"/>
  <line x1="26" y1="45" x2="34" y2="45" stroke="white" stroke-width="1"/>
  
  <!-- Laces on right glove -->
  <line x1="66" y1="35" x2="74" y2="35" stroke="white" stroke-width="1"/>
  <line x1="66" y1="40" x2="74" y2="40" stroke="white" stroke-width="1"/>
  <line x1="66" y1="45" x2="74" y2="45" stroke="white" stroke-width="1"/>
  
  <!-- Impact lines -->
  <path d="M40 30 L45 25 M42 32 L47 27 M44 34 L49 29" stroke="#ffff00" stroke-width="2" opacity="0.8"/>
  <path d="M60 30 L55 25 M58 32 L53 27 M56 34 L51 29" stroke="#ffff00" stroke-width="2" opacity="0.8"/>
  
  <!-- Boxing ring ropes suggestion -->
  <line x1="10" y1="75" x2="90" y2="75" stroke="#333333" stroke-width="2" opacity="0.5"/>
  <line x1="10" y1="80" x2="90" y2="80" stroke="#333333" stroke-width="2" opacity="0.5"/>
</svg>