<svg width="200" height="150" viewBox="0 0 200 150" xmlns="http://www.w3.org/2000/svg">
  <!-- Top bun -->
  <ellipse cx="100" cy="50" rx="80" ry="25" fill="#daa520" stroke="#cd853f" stroke-width="2"/>
  <ellipse cx="100" cy="45" rx="80" ry="20" fill="#f4a460"/>
  
  <!-- Sesame seeds -->
  <ellipse cx="70" cy="40" rx="3" ry="2" fill="#fff8dc"/>
  <ellipse cx="90" cy="35" rx="3" ry="2" fill="#fff8dc"/>
  <ellipse cx="110" cy="37" rx="3" ry="2" fill="#fff8dc"/>
  <ellipse cx="130" cy="42" rx="3" ry="2" fill="#fff8dc"/>
  <ellipse cx="85" cy="50" rx="3" ry="2" fill="#fff8dc"/>
  <ellipse cx="120" cy="48" rx="3" ry="2" fill="#fff8dc"/>
  
  <!-- Lettuce -->
  <path d="M 25 70 Q 50 60 75 65 Q 100 70 125 65 Q 150 60 175 70 Q 150 80 125 75 Q 100 70 75 75 Q 50 80 25 70" fill="#32cd32" opacity="0.8"/>
  
  <!-- Tomato slices -->
  <ellipse cx="60" cy="80" rx="15" ry="8" fill="#ff6347"/>
  <ellipse cx="60" cy="80" rx="10" ry="5" fill="#ff4500"/>
  <ellipse cx="140" cy="78" rx="15" ry="8" fill="#ff6347"/>
  <ellipse cx="140" cy="78" rx="10" ry="5" fill="#ff4500"/>
  
  <!-- Cheese -->
  <polygon points="30,85 170,85 165,95 35,95" fill="#ffd700" opacity="0.9"/>
  
  <!-- Meat patty -->
  <ellipse cx="100" cy="105" rx="75" ry="15" fill="#8b4513"/>
  <ellipse cx="100" cy="102" rx="75" ry="12" fill="#a0522d"/>
  
  <!-- Pickle -->
  <ellipse cx="80" cy="90" rx="8" ry="4" fill="#9acd32"/>
  <ellipse cx="120" cy="92" rx="8" ry="4" fill="#9acd32"/>
  
  <!-- Bottom bun -->
  <ellipse cx="100" cy="125" rx="80" ry="20" fill="#daa520" stroke="#cd853f" stroke-width="2"/>
  <ellipse cx="100" cy="120" rx="80" ry="15" fill="#f4a460"/>
</svg>