<svg width="100" height="100" viewBox="0 0 100 100" xmlns="http://www.w3.org/2000/svg">
  <!-- Peacock body -->
  <ellipse cx="50" cy="65" rx="8" ry="15" fill="#1a5490"/>
  
  <!-- Peacock neck -->
  <ellipse cx="50" cy="45" rx="4" ry="12" fill="#2a6bb0"/>
  
  <!-- Peacock head -->
  <circle cx="50" cy="35" r="6" fill="#3a7bd0"/>
  
  <!-- Beak -->
  <polygon points="50,32 48,28 52,28" fill="#ffa500"/>
  
  <!-- Eye -->
  <circle cx="48" cy="33" r="1.5" fill="white"/>
  <circle cx="48" cy="33" r="1" fill="black"/>
  
  <!-- Crown feathers -->
  <circle cx="48" cy="25" r="2" fill="#0066cc" opacity="0.8"/>
  <circle cx="50" cy="24" r="2" fill="#0066cc" opacity="0.8"/>
  <circle cx="52" cy="25" r="2" fill="#0066cc" opacity="0.8"/>
  
  <!-- Tail feathers spread -->
  <path d="M30 70 Q25 50 35 40 Q40 45 45 55 Q50 65 50 75" fill="#00cc66" opacity="0.7"/>
  <path d="M35 75 Q25 55 40 45 Q45 50 50 60 Q55 70 55 80" fill="#0099ff" opacity="0.7"/>
  <path d="M65 75 Q75 55 60 45 Q55 50 50 60 Q45 70 45 80" fill="#0099ff" opacity="0.7"/>
  <path d="M70 70 Q75 50 65 40 Q60 45 55 55 Q50 65 50 75" fill="#00cc66" opacity="0.7"/>
  
  <!-- Peacock eye spots on feathers -->
  <circle cx="35" cy="50" r="3" fill="#003366"/>
  <circle cx="35" cy="50" r="2" fill="#0066cc"/>
  <circle cx="35" cy="50" r="1" fill="#66ccff"/>
  
  <circle cx="65" cy="50" r="3" fill="#003366"/>
  <circle cx="65" cy="50" r="2" fill="#0066cc"/>
  <circle cx="65" cy="50" r="1" fill="#66ccff"/>
  
  <!-- Legs -->
  <line x1="46" y1="78" x2="46" y2="85" stroke="#8b4513" stroke-width="2"/>
  <line x1="54" y1="78" x2="54" y2="85" stroke="#8b4513" stroke-width="2"/>
  
  <!-- Feet -->
  <path d="M42 85 L44 87 L46 85 L48 87 L50 85" stroke="#8b4513" stroke-width="1.5" fill="none"/>
  <path d="M50 85 L52 87 L54 85 L56 87 L58 85" stroke="#8b4513" stroke-width="1.5" fill="none"/>
</svg>