<svg width="150" height="200" viewBox="0 0 150 200" xmlns="http://www.w3.org/2000/svg">
  <!-- Rack frame -->
  <rect x="20" y="10" width="110" height="180" fill="#2c3e50" stroke="#1a252f" stroke-width="2" rx="5"/>
  
  <!-- Server units -->
  <rect x="25" y="20" width="100" height="15" fill="#34495e" stroke="#2c3e50" stroke-width="1"/>
  <rect x="25" y="40" width="100" height="15" fill="#34495e" stroke="#2c3e50" stroke-width="1"/>
  <rect x="25" y="60" width="100" height="15" fill="#34495e" stroke="#2c3e50" stroke-width="1"/>
  <rect x="25" y="80" width="100" height="15" fill="#34495e" stroke="#2c3e50" stroke-width="1"/>
  <rect x="25" y="100" width="100" height="15" fill="#34495e" stroke="#2c3e50" stroke-width="1"/>
  <rect x="25" y="120" width="100" height="15" fill="#34495e" stroke="#2c3e50" stroke-width="1"/>
  <rect x="25" y="140" width="100" height="15" fill="#34495e" stroke="#2c3e50" stroke-width="1"/>
  <rect x="25" y="160" width="100" height="15" fill="#34495e" stroke="#2c3e50" stroke-width="1"/>
  
  <!-- LED indicators -->
  <circle cx="30" cy="27" r="2" fill="#00ff00"/>
  <circle cx="35" cy="27" r="2" fill="#ff0000"/>
  <circle cx="30" cy="47" r="2" fill="#00ff00"/>
  <circle cx="35" cy="47" r="2" fill="#00ff00"/>
  <circle cx="30" cy="67" r="2" fill="#00ff00"/>
  <circle cx="35" cy="67" r="2" fill="#ffff00"/>
  <circle cx="30" cy="87" r="2" fill="#00ff00"/>
  <circle cx="35" cy="87" r="2" fill="#00ff00"/>
  <circle cx="30" cy="107" r="2" fill="#ff0000"/>
  <circle cx="35" cy="107" r="2" fill="#ff0000"/>
  <circle cx="30" cy="127" r="2" fill="#00ff00"/>
  <circle cx="35" cy="127" r="2" fill="#00ff00"/>
  <circle cx="30" cy="147" r="2" fill="#00ff00"/>
  <circle cx="35" cy="147" r="2" fill="#ffff00"/>
  <circle cx="30" cy="167" r="2" fill="#00ff00"/>
  <circle cx="35" cy="167" r="2" fill="#00ff00"/>
  
  <!-- Ventilation grilles -->
  <rect x="45" y="22" width="70" height="10" fill="#1a252f"/>
  <rect x="47" y="24" width="66" height="1" fill="#7f8c8d"/>
  <rect x="47" y="26" width="66" height="1" fill="#7f8c8d"/>
  <rect x="47" y="28" width="66" height="1" fill="#7f8c8d"/>
  <rect x="47" y="30" width="66" height="1" fill="#7f8c8d"/>
  
  <rect x="45" y="42" width="70" height="10" fill="#1a252f"/>
  <rect x="47" y="44" width="66" height="1" fill="#7f8c8d"/>
  <rect x="47" y="46" width="66" height="1" fill="#7f8c8d"/>
  <rect x="47" y="48" width="66" height="1" fill="#7f8c8d"/>
  <rect x="47" y="50" width="66" height="1" fill="#7f8c8d"/>
  
  <!-- Cables -->
  <rect x="12" y="30" width="8" height="3" fill="#000"/>
  <rect x="12" y="50" width="8" height="3" fill="#ff0000"/>
  <rect x="12" y="70" width="8" height="3" fill="#0000ff"/>
  <rect x="12" y="90" width="8" height="3" fill="#000"/>
  
  <!-- Power indicator -->
  <circle cx="75" cy="185" r="4" fill="#00ff00"/>
  <text x="75" y="189" text-anchor="middle" font-family="Arial" font-size="8" fill="#fff">PWR</text>
</svg>