<svg width="150" height="150" viewBox="0 0 150 150" xmlns="http://www.w3.org/2000/svg">
  <!-- Soccer ball background -->
  <circle cx="75" cy="75" r="70" fill="#ffffff" stroke="#000000" stroke-width="2"/>
  
  <!-- Pentagon patterns (black) -->
  <polygon points="75,20 90,35 82,55 68,55 60,35" fill="#000000"/>
  <polygon points="45,45 65,40 70,60 50,70 35,55" fill="#000000"/>
  <polygon points="105,45 115,55 100,70 80,60 85,40" fill="#000000"/>
  <polygon points="35,85 50,80 55,100 40,110 25,95" fill="#000000"/>
  <polygon points="115,85 125,95 110,110 95,100 100,80" fill="#000000"/>
  <polygon points="75,130 60,115 68,95 82,95 90,115" fill="#000000"/>
  
  <!-- Hexagon patterns (white with black borders) -->
  <polygon points="75,35 88,45 85,60 65,60 62,45" fill="#ffffff" stroke="#000000" stroke-width="1"/>
  <polygon points="45,60 62,55 70,70 55,80 40,70" fill="#ffffff" stroke="#000000" stroke-width="1"/>
  <polygon points="105,60 110,70 95,80 85,70 93,55" fill="#ffffff" stroke="#000000" stroke-width="1"/>
  <polygon points="62,85 75,80 88,85 85,100 65,100" fill="#ffffff" stroke="#000000" stroke-width="1"/>
  <polygon points="45,90 60,95 55,110 40,105 35,90" fill="#ffffff" stroke="#000000" stroke-width="1"/>
  <polygon points="105,90 115,90 110,105 95,110 90,95" fill="#ffffff" stroke="#000000" stroke-width="1"/>
  
  <!-- Center pentagon -->
  <polygon points="75,65 85,70 80,85 70,85 65,70" fill="#000000"/>
  
  <!-- Highlight to give 3D effect -->
  <circle cx="60" cy="50" r="15" fill="#ffffff" opacity="0.3"/>
</svg>