<svg viewBox="0 0 400 400" xmlns="http://www.w3.org/2000/svg">
    <rect width="400" height="400" fill="#2c5530"/>
    <g stroke="#00ff41" stroke-width="3" fill="none">
        <line x1="50" y1="50" x2="350" y2="50"/>
        <line x1="50" y1="50" x2="50" y2="350"/>
        <line x1="150" y1="50" x2="150" y2="200"/>
        <line x1="150" y1="200" x2="300" y2="200"/>
        <line x1="300" y1="200" x2="300" y2="350"/>
        <line x1="50" y1="150" x2="200" y2="150"/>
        <line x1="200" y1="150" x2="200" y2="300"/>
        <line x1="200" y1="300" x2="350" y2="300"/>
    </g>
    <g fill="#00ff41">
        <circle cx="150" cy="50" r="8"/>
        <circle cx="50" cy="150" r="8"/>
        <circle cx="200" cy="150" r="8"/>
        <circle cx="150" cy="200" r="8"/>
        <circle cx="300" cy="200" r="8"/>
        <circle cx="200" cy="300" r="8"/>
        <circle cx="300" cy="350" r="8"/>
    </g>
    <rect x="100" y="100" width="40" height="20" fill="#00ff41"/>
    <rect x="250" y="250" width="30" height="30" fill="#00ff41"/>
</svg>